# xmcd
#
# Track frame offsets:
#	150
#	12256
#	24701
#	34917
#	48870
#	60007
#	69649
#	81127
#	91655
#	102128
#	112144
#
# Disc length: 1684 seconds
#
# Revision: 1
# Processed by: cddbd v1.5.2PL0 Copyright (c) Steve Scherf et al.
# Submitted via: audiograbber 1.83.01
#
DISCID=7f06920b
DTITLE=Varios - Música Del Oeste -  Vol. 3 
DYEAR=2003
DGENRE=Country
TTITLE0=Bacharach - David - Toda La Lluvia Cae Sobre Mi
TTITLE1=Weissberg - Duelo De Banjos
TTITLE2=Trad,- Jones - Jinetes En El Cielo
TTITLE3=Barton - La Gran Llanura
TTITLE4=Young - El Hombre De Los Valles Perdidos
TTITLE5=Manzano - Búfalo
TTITLE6=Newman - Darly - Rio Sin Retorno
TTITLE7=Trad. - Pelletier - Mi Querida Clementina
TTITLE8=Trad. - Pelletier - Oh , Susana
TTITLE9=Tradicional - Jesse James
TTITLE10=Ennio Morricone - La Muerte Tenia Un Precio "Rindiendo Cuentas"
EXTD=Alberto N.
EXTT0=
EXTT1=
EXTT2=
EXTT3=
EXTT4=
EXTT5=
EXTT6=
EXTT7=
EXTT8=
EXTT9=
EXTT10=
PLAYORDER=
